<?xml version="1.0" encoding="UTF-8" standalone="no"?>
<!-- Created with Inkscape (http://www.inkscape.org/) -->

<svg
   width="199.99966mm"
   height="199.99968mm"
   viewBox="0 0 199.99966 199.99968"
   version="1.1"
   id="svg1"
   xmlns="http://www.w3.org/2000/svg"
   xmlns:svg="http://www.w3.org/2000/svg">
  <defs
     id="defs1" />
  <g
     id="layer1"
     transform="translate(-3.9124227,-11.178646)">
    <path
       id="path1"
       style="fill:#000080;stroke-width:0.264583"
       d="M 103.91252,11.178646 A 100,100 0 0 0 3.9124227,111.17874 100,100 0 0 0 103.91252,211.17832 a 100,100 0 0 0 96.6804,-75.1892 69.576469,70.246597 0 0 1 -66.25693,49.09984 69.576469,70.246597 0 0 1 -69.576635,-70.24636 69.576469,70.246597 0 0 1 69.576635,-70.246356 69.576469,70.246597 0 0 1 69.50997,67.510606 100,100 0 0 0 0.0661,-0.92811 100,100 0 0 0 -99.99958,-100.000094 z" />
  </g>
</svg>
